# xmcd
#
# Track frame offsets: 
#        150
#        16438
#        31726
#        46284
#        63015
#        89992
#        104370
#        122839
#        153474
#        169947
#        191947
#        216233
#        231619
#        243702
#
# Disc length: 3631 seconds
#
# Revision: 2
# Processed by: cddbd v1.5.2PL0 Copyright (c) Steve Scherf et al.
# Submitted via: ExactAudioCopy v1.5
#
DISCID=ce0e2d0e
DTITLE=Ricky Skaggs - Mosaic
DYEAR=2010
DGENRE=Country
TTITLE0=Mosaic
TTITLE1=Can't Shake Jesus
TTITLE2=Make God First
TTITLE3=Someday Soon
TTITLE4=Instead
TTITLE5=Shepherd's Voice
TTITLE6=Picture
TTITLE7=Fire From The Sky
TTITLE8=I'm Awake Now
TTITLE9=My Cup Runneth Over
TTITLE10=You'll Find God
TTITLE11=A Work Of Love
TTITLE12=Return To Sender
TTITLE13=Spontaneous Worship (Bonus Track)
EXTD=
EXTT0=
EXTT1=
EXTT2=
EXTT3=
EXTT4=
EXTT5=
EXTT6=
EXTT7=
EXTT8=
EXTT9=
EXTT10=
EXTT11=
EXTT12=
EXTT13=
PLAYORDER=
